<svg width="385" height="484" viewBox="0 0 385 484" fill="none" xmlns="http://www.w3.org/2000/svg">
<g clip-path="url(#clip0_37_2366)">
<path d="M323.294 483.46H306.296V466.194H323.294V483.46Z" fill="#FCF9F9" fill-opacity="0.1"/>
<path d="M221.311 483.46H204.312V466.194H221.311V483.46Z" fill="#FCF9F9" fill-opacity="0.1"/>
<path d="M119.322 483.46H102.324V466.194H119.322V483.46Z" fill="#FCF9F9" fill-opacity="0.1"/>
<path d="M102.324 483.46H85.3262V466.194H102.324V483.46Z" fill="#FCF9F9" fill-opacity="0.1"/>
<path d="M85.3262 483.46H68.3281V466.194H85.3262V483.46Z" fill="#FCF9F9" fill-opacity="0.1"/>
<path d="M17.334 483.46H0.335938V466.194H17.334V483.46Z" fill="#FCF9F9" fill-opacity="0.1"/>
<path d="M323.294 466.194H306.296V448.928H323.294V466.194Z" fill="#FCF9F9" fill-opacity="0.1"/>
<path d="M306.296 466.194H289.298V448.928H306.296V466.194Z" fill="#FCF9F9" fill-opacity="0.1"/>
<path d="M238.309 466.194H221.311V448.928H238.309V466.194Z" fill="#FCF9F9" fill-opacity="0.1"/>
<path d="M221.311 466.194H204.312V448.928H221.311V466.194Z" fill="#FCF9F9" fill-opacity="0.1"/>
<path d="M102.324 466.194H85.3262V448.928H102.324V466.194Z" fill="#FCF9F9" fill-opacity="0.1"/>
<path d="M85.3262 466.194H68.3281V448.928H85.3262V466.194Z" fill="#FCF9F9" fill-opacity="0.1"/>
<path d="M68.3281 466.194H51.3301V448.928H68.3281V466.194Z" fill="#FCF9F9" fill-opacity="0.1"/>
<path d="M323.294 448.927H306.296V431.661H323.294V448.927Z" fill="#FCF9F9" fill-opacity="0.1"/>
<path d="M306.296 448.927H289.298V431.661H306.296V448.927Z" fill="#FCF9F9" fill-opacity="0.1"/>
<path d="M289.298 448.927H272.3V431.661H289.298V448.927Z" fill="#FCF9F9" fill-opacity="0.1"/>
<path d="M255.307 448.927H238.309V431.661H255.307V448.927Z" fill="#FCF9F9" fill-opacity="0.1"/>
<path d="M238.309 448.927H221.311V431.661H238.309V448.927Z" fill="#FCF9F9" fill-opacity="0.1"/>
<path d="M221.311 448.927H204.312V431.661H221.311V448.927Z" fill="#FCF9F9" fill-opacity="0.1"/>
<path d="M85.3262 448.927H68.3281V431.661H85.3262V448.927Z" fill="#FCF9F9" fill-opacity="0.1"/>
<path d="M68.3281 448.927H51.3301V431.661H68.3281V448.927Z" fill="#FCF9F9" fill-opacity="0.1"/>
<path d="M51.3301 448.927H34.332V431.661H51.3301V448.927Z" fill="#FCF9F9" fill-opacity="0.1"/>
<path d="M391.287 431.661H374.289V414.395H391.287V431.661Z" fill="#FCF9F9" fill-opacity="0.1"/>
<path d="M374.289 431.661H357.291V414.395H374.289V431.661Z" fill="#FCF9F9" fill-opacity="0.1"/>
<path d="M357.291 431.661H340.292V414.395H357.291V431.661Z" fill="#FCF9F9" fill-opacity="0.1"/>
<path d="M306.296 431.661H289.298V414.395H306.296V431.661Z" fill="#FCF9F9" fill-opacity="0.1"/>
<path d="M289.298 431.661H272.3V414.395H289.298V431.661Z" fill="#FCF9F9" fill-opacity="0.1"/>
<path d="M255.307 431.661H238.309V414.395H255.307V431.661Z" fill="#FCF9F9" fill-opacity="0.1"/>
<path d="M238.309 431.661H221.311V414.395H238.309V431.661Z" fill="#FCF9F9" fill-opacity="0.1"/>
<path d="M187.314 431.661H170.316V414.395H187.314V431.661Z" fill="#FCF9F9" fill-opacity="0.1"/>
<path d="M170.316 431.661H153.318V414.395H170.316V431.661Z" fill="#FCF9F9" fill-opacity="0.1"/>
<path d="M153.318 431.661H136.32V414.395H153.318V431.661Z" fill="#FCF9F9" fill-opacity="0.1"/>
<path d="M68.3281 431.661H51.3301V414.395H68.3281V431.661Z" fill="#FCF9F9" fill-opacity="0.1"/>
<path d="M51.3301 431.661H34.332V414.395H51.3301V431.661Z" fill="#FCF9F9" fill-opacity="0.1"/>
<path d="M34.332 431.661H17.334V414.395H34.332V431.661Z" fill="#FCF9F9" fill-opacity="0.1"/>
<path d="M374.289 414.395H357.291V397.128H374.289V414.395Z" fill="#FCF9F9" fill-opacity="0.1"/>
<path d="M357.291 414.395H340.292V397.128H357.291V414.395Z" fill="#FCF9F9" fill-opacity="0.1"/>
<path d="M340.292 414.395H323.294V397.128H340.292V414.395Z" fill="#FCF9F9" fill-opacity="0.1"/>
<path d="M289.298 414.395H272.3V397.128H289.298V414.395Z" fill="#FCF9F9" fill-opacity="0.1"/>
<path d="M255.307 414.395H238.309V397.128H255.307V414.395Z" fill="#FCF9F9" fill-opacity="0.1"/>
<path d="M204.312 414.395H187.314V397.128H204.312V414.395Z" fill="#FCF9F9" fill-opacity="0.1"/>
<path d="M187.314 414.395H170.316V397.128H187.314V414.395Z" fill="#FCF9F9" fill-opacity="0.1"/>
<path d="M170.316 414.395H153.318V397.128H170.316V414.395Z" fill="#FCF9F9" fill-opacity="0.1"/>
<path d="M51.3301 414.395H34.332V397.128H51.3301V414.395Z" fill="#FCF9F9" fill-opacity="0.1"/>
<path d="M34.332 414.395H17.334V397.128H34.332V414.395Z" fill="#FCF9F9" fill-opacity="0.1"/>
<path d="M17.334 414.395H0.335938V397.128H17.334V414.395Z" fill="#FCF9F9" fill-opacity="0.1"/>
<path d="M357.291 397.128H340.292V379.862H357.291V397.128Z" fill="#FCF9F9" fill-opacity="0.1"/>
<path d="M340.292 397.128H323.294V379.862H340.292V397.128Z" fill="#FCF9F9" fill-opacity="0.1"/>
<path d="M323.294 397.128H306.296V379.862H323.294V397.128Z" fill="#FCF9F9" fill-opacity="0.1"/>
<path d="M221.311 397.128H204.312V379.862H221.311V397.128Z" fill="#FCF9F9" fill-opacity="0.1"/>
<path d="M204.312 397.128H187.314V379.862H204.312V397.128Z" fill="#FCF9F9" fill-opacity="0.1"/>
<path d="M187.314 397.128H170.316V379.862H187.314V397.128Z" fill="#FCF9F9" fill-opacity="0.1"/>
<path d="M34.332 397.128H17.334V379.862H34.332V397.128Z" fill="#FCF9F9" fill-opacity="0.1"/>
<path d="M17.334 397.128H0.335938V379.862H17.334V397.128Z" fill="#FCF9F9" fill-opacity="0.1"/>
<path d="M289.298 379.862H272.3V362.595H289.298V379.862Z" fill="#FCF9F9" fill-opacity="0.1"/>
<path d="M255.307 379.862H238.309V362.595H255.307V379.862Z" fill="#FCF9F9" fill-opacity="0.1"/>
<path d="M102.324 379.862H85.3262V362.595H102.324V379.862Z" fill="#FCF9F9" fill-opacity="0.1"/>
<path d="M17.334 379.862H0.335938V362.595H17.334V379.862Z" fill="#FCF9F9" fill-opacity="0.1"/>
<path d="M306.296 362.595H289.298V345.329H306.296V362.595Z" fill="#FCF9F9" fill-opacity="0.1"/>
<path d="M289.298 362.595H272.3V345.329H289.298V362.595Z" fill="#FCF9F9" fill-opacity="0.1"/>
<path d="M255.307 362.595H238.309V345.329H255.307V362.595Z" fill="#FCF9F9" fill-opacity="0.1"/>
<path d="M238.309 362.595H221.311V345.329H238.309V362.595Z" fill="#FCF9F9" fill-opacity="0.1"/>
<path d="M119.322 362.595H102.324V345.329H119.322V362.595Z" fill="#FCF9F9" fill-opacity="0.1"/>
<path d="M102.324 362.595H85.3262V345.329H102.324V362.595Z" fill="#FCF9F9" fill-opacity="0.1"/>
<path d="M323.294 345.329H306.296V328.062H323.294V345.329Z" fill="#FCF9F9" fill-opacity="0.1"/>
<path d="M306.296 345.329H289.298V328.062H306.296V345.329Z" fill="#FCF9F9" fill-opacity="0.1"/>
<path d="M238.309 345.329H221.311V328.062H238.309V345.329Z" fill="#FCF9F9" fill-opacity="0.1"/>
<path d="M221.311 345.329H204.312V328.062H221.311V345.329Z" fill="#FCF9F9" fill-opacity="0.1"/>
<path d="M136.32 345.329H119.322V328.062H136.32V345.329Z" fill="#FCF9F9" fill-opacity="0.1"/>
<path d="M119.322 345.329H102.324V328.062H119.322V345.329Z" fill="#FCF9F9" fill-opacity="0.1"/>
<path d="M102.324 345.329H85.3262V328.062H102.324V345.329Z" fill="#FCF9F9" fill-opacity="0.1"/>
<path d="M340.292 328.062H323.294V310.796H340.292V328.062Z" fill="#FCF9F9" fill-opacity="0.1"/>
<path d="M323.294 328.062H306.296V310.796H323.294V328.062Z" fill="#FCF9F9" fill-opacity="0.1"/>
<path d="M221.311 328.062H204.312V310.796H221.311V328.062Z" fill="#FCF9F9" fill-opacity="0.1"/>
<path d="M204.312 328.062H187.314V310.796H204.312V328.062Z" fill="#FCF9F9" fill-opacity="0.1"/>
<path d="M136.32 328.062H119.322V310.796H136.32V328.062Z" fill="#FCF9F9" fill-opacity="0.1"/>
<path d="M119.322 328.062H102.324V310.796H119.322V328.062Z" fill="#FCF9F9" fill-opacity="0.1"/>
<path d="M357.291 310.796H340.292V293.53H357.291V310.796Z" fill="#FCF9F9" fill-opacity="0.1"/>
<path d="M340.292 310.796H323.294V293.53H340.292V310.796Z" fill="#FCF9F9" fill-opacity="0.1"/>
<path d="M204.312 310.796H187.314V293.53H204.312V310.796Z" fill="#FCF9F9" fill-opacity="0.1"/>
<path d="M187.314 310.796H170.316V293.53H187.314V310.796Z" fill="#FCF9F9" fill-opacity="0.1"/>
<path d="M136.32 310.796H119.322V293.53H136.32V310.796Z" fill="#FCF9F9" fill-opacity="0.1"/>
<path d="M85.3262 310.796H68.3281V293.53H85.3262V310.796Z" fill="#FCF9F9" fill-opacity="0.1"/>
<path d="M68.3281 310.796H51.3301V293.53H68.3281V310.796Z" fill="#FCF9F9" fill-opacity="0.1"/>
<path d="M51.3301 310.796H34.332V293.53H51.3301V310.796Z" fill="#FCF9F9" fill-opacity="0.1"/>
<path d="M374.289 293.53H357.291V276.263H374.289V293.53Z" fill="#FCF9F9" fill-opacity="0.1"/>
<path d="M357.291 293.53H340.292V276.263H357.291V293.53Z" fill="#FCF9F9" fill-opacity="0.1"/>
<path d="M187.314 293.53H170.316V276.263H187.314V293.53Z" fill="#FCF9F9" fill-opacity="0.1"/>
<path d="M170.316 293.53H153.318V276.263H170.316V293.53Z" fill="#FCF9F9" fill-opacity="0.1"/>
<path d="M102.324 293.53H85.3262V276.263H102.324V293.53Z" fill="#FCF9F9" fill-opacity="0.1"/>
<path d="M85.3262 293.53H68.3281V276.263H85.3262V293.53Z" fill="#FCF9F9" fill-opacity="0.1"/>
<path d="M68.3281 293.53H51.3301V276.263H68.3281V293.53Z" fill="#FCF9F9" fill-opacity="0.1"/>
<path d="M391.287 276.263H374.289V258.997H391.287V276.263Z" fill="#FCF9F9" fill-opacity="0.1"/>
<path d="M374.289 276.263H357.291V258.997H374.289V276.263Z" fill="#FCF9F9" fill-opacity="0.1"/>
<path d="M272.305 276.263H255.307V258.997H272.305V276.263Z" fill="#FCF9F9" fill-opacity="0.1"/>
<path d="M170.316 276.263H153.318V258.997H170.316V276.263Z" fill="#FCF9F9" fill-opacity="0.1"/>
<path d="M153.318 276.263H136.32V258.997H153.318V276.263Z" fill="#FCF9F9" fill-opacity="0.1"/>
<path d="M119.322 276.263H102.324V258.997H119.322V276.263Z" fill="#FCF9F9" fill-opacity="0.1"/>
<path d="M102.324 276.263H85.3262V258.997H102.324V276.263Z" fill="#FCF9F9" fill-opacity="0.1"/>
<path d="M85.3262 276.263H68.3281V258.997H85.3262V276.263Z" fill="#FCF9F9" fill-opacity="0.1"/>
<path d="M16.998 258.997H0V241.73H16.998V258.997Z" fill="#FCF9F9" fill-opacity="0.1"/>
<path d="M34.332 258.997H17.334V241.73H34.332V258.997Z" fill="#FCF9F9" fill-opacity="0.1"/>
<path d="M16.998 276.263H0V258.997H16.998V276.263Z" fill="#FCF9F9" fill-opacity="0.1"/>
<path d="M16.998 241.73H0V224.464H16.998V241.73Z" fill="#FCF9F9" fill-opacity="0.1"/>
<path d="M289.298 258.997H272.3V241.73H289.298V258.997Z" fill="#FCF9F9" fill-opacity="0.1"/>
<path d="M272.305 258.997H255.307V241.73H272.305V258.997Z" fill="#FCF9F9" fill-opacity="0.1"/>
<path d="M255.307 258.997H238.309V241.73H255.307V258.997Z" fill="#FCF9F9" fill-opacity="0.1"/>
<path d="M391.287 241.73H374.289V224.464H391.287V241.73Z" fill="#FCF9F9" fill-opacity="0.1"/>
<path d="M374.289 241.73H357.291V224.464H374.289V241.73Z" fill="#FCF9F9" fill-opacity="0.1"/>
<path d="M272.305 241.73H255.307V224.464H272.305V241.73Z" fill="#FCF9F9" fill-opacity="0.1"/>
<path d="M170.316 241.73H153.318V224.464H170.316V241.73Z" fill="#FCF9F9" fill-opacity="0.1"/>
<path d="M153.318 241.73H136.32V224.464H153.318V241.73Z" fill="#FCF9F9" fill-opacity="0.1"/>
<path d="M119.322 241.73H102.324V224.464H119.322V241.73Z" fill="#FCF9F9" fill-opacity="0.1"/>
<path d="M102.324 241.73H85.3262V224.464H102.324V241.73Z" fill="#FCF9F9" fill-opacity="0.1"/>
<path d="M85.3262 241.73H68.3281V224.464H85.3262V241.73Z" fill="#FCF9F9" fill-opacity="0.1"/>
<path d="M374.289 224.464H357.291V207.197H374.289V224.464Z" fill="#FCF9F9" fill-opacity="0.1"/>
<path d="M357.291 224.464H340.292V207.197H357.291V224.464Z" fill="#FCF9F9" fill-opacity="0.1"/>
<path d="M187.314 224.464H170.316V207.197H187.314V224.464Z" fill="#FCF9F9" fill-opacity="0.1"/>
<path d="M170.316 224.464H153.318V207.197H170.316V224.464Z" fill="#FCF9F9" fill-opacity="0.1"/>
<path d="M102.324 224.464H85.3262V207.197H102.324V224.464Z" fill="#FCF9F9" fill-opacity="0.1"/>
<path d="M85.3262 224.464H68.3281V207.197H85.3262V224.464Z" fill="#FCF9F9" fill-opacity="0.1"/>
<path d="M68.3281 224.464H51.3301V207.197H68.3281V224.464Z" fill="#FCF9F9" fill-opacity="0.1"/>
<path d="M357.291 207.197H340.292V189.931H357.291V207.197Z" fill="#FCF9F9" fill-opacity="0.1"/>
<path d="M340.292 207.197H323.294V189.931H340.292V207.197Z" fill="#FCF9F9" fill-opacity="0.1"/>
<path d="M204.312 207.197H187.314V189.931H204.312V207.197Z" fill="#FCF9F9" fill-opacity="0.1"/>
<path d="M187.314 207.197H170.316V189.931H187.314V207.197Z" fill="#FCF9F9" fill-opacity="0.1"/>
<path d="M136.32 207.197H119.322V189.931H136.32V207.197Z" fill="#FCF9F9" fill-opacity="0.1"/>
<path d="M85.3262 207.197H68.3281V189.931H85.3262V207.197Z" fill="#FCF9F9" fill-opacity="0.1"/>
<path d="M68.3281 207.197H51.3301V189.931H68.3281V207.197Z" fill="#FCF9F9" fill-opacity="0.1"/>
<path d="M51.3301 207.197H34.332V189.931H51.3301V207.197Z" fill="#FCF9F9" fill-opacity="0.1"/>
<path d="M340.292 189.931H323.294V172.664H340.292V189.931Z" fill="#FCF9F9" fill-opacity="0.1"/>
<path d="M323.294 189.931H306.296V172.664H323.294V189.931Z" fill="#FCF9F9" fill-opacity="0.1"/>
<path d="M221.311 189.931H204.312V172.664H221.311V189.931Z" fill="#FCF9F9" fill-opacity="0.1"/>
<path d="M204.312 189.931H187.314V172.664H204.312V189.931Z" fill="#FCF9F9" fill-opacity="0.1"/>
<path d="M136.32 189.931H119.322V172.664H136.32V189.931Z" fill="#FCF9F9" fill-opacity="0.1"/>
<path d="M119.322 189.931H102.324V172.664H119.322V189.931Z" fill="#FCF9F9" fill-opacity="0.1"/>
<path d="M323.294 172.664H306.296V155.398H323.294V172.664Z" fill="#FCF9F9" fill-opacity="0.1"/>
<path d="M306.296 172.664H289.298V155.398H306.296V172.664Z" fill="#FCF9F9" fill-opacity="0.1"/>
<path d="M238.309 172.664H221.311V155.398H238.309V172.664Z" fill="#FCF9F9" fill-opacity="0.1"/>
<path d="M221.311 172.664H204.312V155.398H221.311V172.664Z" fill="#FCF9F9" fill-opacity="0.1"/>
<path d="M136.32 172.664H119.322V155.398H136.32V172.664Z" fill="#FCF9F9" fill-opacity="0.1"/>
<path d="M119.322 172.664H102.324V155.398H119.322V172.664Z" fill="#FCF9F9" fill-opacity="0.1"/>
<path d="M102.324 172.664H85.3262V155.398H102.324V172.664Z" fill="#FCF9F9" fill-opacity="0.1"/>
<path d="M306.296 155.398H289.298V138.132H306.296V155.398Z" fill="#FCF9F9" fill-opacity="0.1"/>
<path d="M289.298 155.398H272.3V138.132H289.298V155.398Z" fill="#FCF9F9" fill-opacity="0.1"/>
<path d="M255.307 155.398H238.309V138.132H255.307V155.398Z" fill="#FCF9F9" fill-opacity="0.1"/>
<path d="M238.309 155.398H221.311V138.132H238.309V155.398Z" fill="#FCF9F9" fill-opacity="0.1"/>
<path d="M119.322 155.398H102.324V138.132H119.322V155.398Z" fill="#FCF9F9" fill-opacity="0.1"/>
<path d="M102.324 155.398H85.3262V138.132H102.324V155.398Z" fill="#FCF9F9" fill-opacity="0.1"/>
<path d="M289.298 138.132H272.3V120.865H289.298V138.132Z" fill="#FCF9F9" fill-opacity="0.1"/>
<path d="M255.307 138.132H238.309V120.865H255.307V138.132Z" fill="#FCF9F9" fill-opacity="0.1"/>
<path d="M102.324 138.132H85.3262V120.865H102.324V138.132Z" fill="#FCF9F9" fill-opacity="0.1"/>
<path d="M17.334 120.865H0.335938V103.599H17.334V120.865Z" fill="#FCF9F9" fill-opacity="0.1"/>
<path d="M357.291 103.599H340.292V86.3322H357.291V103.599Z" fill="#FCF9F9" fill-opacity="0.1"/>
<path d="M340.292 103.599H323.294V86.3322H340.292V103.599Z" fill="#FCF9F9" fill-opacity="0.1"/>
<path d="M323.294 103.599H306.296V86.3322H323.294V103.599Z" fill="#FCF9F9" fill-opacity="0.1"/>
<path d="M221.311 103.599H204.312V86.3322H221.311V103.599Z" fill="#FCF9F9" fill-opacity="0.1"/>
<path d="M204.312 103.599H187.314V86.3322H204.312V103.599Z" fill="#FCF9F9" fill-opacity="0.1"/>
<path d="M187.314 103.599H170.316V86.3322H187.314V103.599Z" fill="#FCF9F9" fill-opacity="0.1"/>
<path d="M34.332 103.599H17.334V86.3322H34.332V103.599Z" fill="#FCF9F9" fill-opacity="0.1"/>
<path d="M17.334 103.599H0.335938V86.3322H17.334V103.599Z" fill="#FCF9F9" fill-opacity="0.1"/>
<path d="M374.289 86.3322H357.291V69.0657H374.289V86.3322Z" fill="#FCF9F9" fill-opacity="0.1"/>
<path d="M357.291 86.3322H340.292V69.0657H357.291V86.3322Z" fill="#FCF9F9" fill-opacity="0.1"/>
<path d="M340.292 86.3322H323.294V69.0657H340.292V86.3322Z" fill="#FCF9F9" fill-opacity="0.1"/>
<path d="M289.298 86.3322H272.3V69.0657H289.298V86.3322Z" fill="#FCF9F9" fill-opacity="0.1"/>
<path d="M255.307 86.3322H238.309V69.0657H255.307V86.3322Z" fill="#FCF9F9" fill-opacity="0.1"/>
<path d="M204.312 86.3322H187.314V69.0657H204.312V86.3322Z" fill="#FCF9F9" fill-opacity="0.1"/>
<path d="M187.314 86.3322H170.316V69.0657H187.314V86.3322Z" fill="#FCF9F9" fill-opacity="0.1"/>
<path d="M170.316 86.3322H153.318V69.0657H170.316V86.3322Z" fill="#FCF9F9" fill-opacity="0.1"/>
<path d="M51.3301 86.3322H34.332V69.0657H51.3301V86.3322Z" fill="#FCF9F9" fill-opacity="0.1"/>
<path d="M34.332 86.3322H17.334V69.0657H34.332V86.3322Z" fill="#FCF9F9" fill-opacity="0.1"/>
<path d="M17.334 86.3322H0.335938V69.0657H17.334V86.3322Z" fill="#FCF9F9" fill-opacity="0.1"/>
<path d="M391.287 69.0657H374.289V51.7992H391.287V69.0657Z" fill="#FCF9F9" fill-opacity="0.1"/>
<path d="M374.289 69.0657H357.291V51.7992H374.289V69.0657Z" fill="#FCF9F9" fill-opacity="0.1"/>
<path d="M357.291 69.0657H340.292V51.7992H357.291V69.0657Z" fill="#FCF9F9" fill-opacity="0.1"/>
<path d="M306.296 69.0657H289.298V51.7992H306.296V69.0657Z" fill="#FCF9F9" fill-opacity="0.1"/>
<path d="M289.298 69.0657H272.3V51.7992H289.298V69.0657Z" fill="#FCF9F9" fill-opacity="0.1"/>
<path d="M255.307 69.0657H238.309V51.7992H255.307V69.0657Z" fill="#FCF9F9" fill-opacity="0.1"/>
<path d="M238.309 69.0657H221.311V51.7992H238.309V69.0657Z" fill="#FCF9F9" fill-opacity="0.1"/>
<path d="M187.314 69.0657H170.316V51.7992H187.314V69.0657Z" fill="#FCF9F9" fill-opacity="0.1"/>
<path d="M170.316 69.0657H153.318V51.7992H170.316V69.0657Z" fill="#FCF9F9" fill-opacity="0.1"/>
<path d="M153.318 69.0657H136.32V51.7992H153.318V69.0657Z" fill="#FCF9F9" fill-opacity="0.1"/>
<path d="M68.3281 69.0657H51.3301V51.7992H68.3281V69.0657Z" fill="#FCF9F9" fill-opacity="0.1"/>
<path d="M51.3301 69.0657H34.332V51.7992H51.3301V69.0657Z" fill="#FCF9F9" fill-opacity="0.1"/>
<path d="M34.332 69.0657H17.334V51.7992H34.332V69.0657Z" fill="#FCF9F9" fill-opacity="0.1"/>
<path d="M323.294 51.7992H306.296V34.5328H323.294V51.7992Z" fill="#FCF9F9" fill-opacity="0.1"/>
<path d="M306.296 51.7992H289.298V34.5328H306.296V51.7992Z" fill="#FCF9F9" fill-opacity="0.1"/>
<path d="M289.298 51.7992H272.3V34.5328H289.298V51.7992Z" fill="#FCF9F9" fill-opacity="0.1"/>
<path d="M255.307 51.7992H238.309V34.5328H255.307V51.7992Z" fill="#FCF9F9" fill-opacity="0.1"/>
<path d="M238.309 51.7992H221.311V34.5328H238.309V51.7992Z" fill="#FCF9F9" fill-opacity="0.1"/>
<path d="M221.311 51.7992H204.312V34.5328H221.311V51.7992Z" fill="#FCF9F9" fill-opacity="0.1"/>
<path d="M85.3262 51.7992H68.3281V34.5328H85.3262V51.7992Z" fill="#FCF9F9" fill-opacity="0.1"/>
<path d="M68.3281 51.7992H51.3301V34.5328H68.3281V51.7992Z" fill="#FCF9F9" fill-opacity="0.1"/>
<path d="M51.3301 51.7992H34.332V34.5328H51.3301V51.7992Z" fill="#FCF9F9" fill-opacity="0.1"/>
<path d="M323.294 34.5328H306.296V17.2664H323.294V34.5328Z" fill="#FCF9F9" fill-opacity="0.1"/>
<path d="M306.296 34.5328H289.298V17.2664H306.296V34.5328Z" fill="#FCF9F9" fill-opacity="0.1"/>
<path d="M238.309 34.5328H221.311V17.2664H238.309V34.5328Z" fill="#FCF9F9" fill-opacity="0.1"/>
<path d="M221.311 34.5328H204.312V17.2664H221.311V34.5328Z" fill="#FCF9F9" fill-opacity="0.1"/>
<path d="M102.324 34.5328H85.3262V17.2664H102.324V34.5328Z" fill="#FCF9F9" fill-opacity="0.1"/>
<path d="M85.3262 34.5328H68.3281V17.2664H85.3262V34.5328Z" fill="#FCF9F9" fill-opacity="0.1"/>
<path d="M68.3281 34.5328H51.3301V17.2664H68.3281V34.5328Z" fill="#FCF9F9" fill-opacity="0.1"/>
<path d="M323.294 17.2664H306.296V-8.39233e-05H323.294V17.2664Z" fill="#FCF9F9" fill-opacity="0.1"/>
<path d="M221.311 17.2664H204.312V-8.39233e-05H221.311V17.2664Z" fill="#FCF9F9" fill-opacity="0.1"/>
<path d="M119.322 17.2664H102.324V-8.39233e-05H119.322V17.2664Z" fill="#FCF9F9" fill-opacity="0.1"/>
<path d="M102.324 17.2664H85.3262V-8.39233e-05H102.324V17.2664Z" fill="#FCF9F9" fill-opacity="0.1"/>
<path d="M85.3262 17.2664H68.3281V-8.39233e-05H85.3262V17.2664Z" fill="#FCF9F9" fill-opacity="0.1"/>
<path d="M17.334 17.2664H0.335938V-8.39233e-05H17.334V17.2664Z" fill="#FCF9F9" fill-opacity="0.1"/>
</g>
<defs>
<clipPath id="clip0_37_2366">
<rect width="545" height="484" fill="white"/>
</clipPath>
</defs>
</svg>
